<?xml version="1.0" encoding="UTF-8" standalone="no"?><!DOCTYPE svg PUBLIC "-//W3C//DTD SVG 1.1//EN" "http://www.w3.org/Graphics/SVG/1.1/DTD/svg11.dtd"><svg width="100%" height="100%" viewBox="0 0 413 413" version="1.1" xmlns="http://www.w3.org/2000/svg" xmlns:xlink="http://www.w3.org/1999/xlink" xml:space="preserve" xmlns:serif="http://www.serif.com/" style="fill-rule:evenodd;clip-rule:evenodd;stroke-linecap:round;stroke-linejoin:round;stroke-miterlimit:1.5;"><g><path d="M38.517,279.487c-0.512,0 -0.976,-0.192 -1.393,-0.576c-0.416,-0.384 -0.624,-0.865 -0.624,-1.441c0,-0.256 0.128,-0.64 0.384,-1.153l21.42,-31.12l-20.075,-29.777c-0.256,-0.384 -0.384,-0.768 -0.384,-1.152c0,-0.577 0.208,-1.057 0.624,-1.441c0.416,-0.384 0.881,-0.576 1.393,-0.576l10.085,0c1.153,0 2.145,0.608 2.978,1.825l14.024,20.555l14.119,-20.555c0.705,-1.217 1.697,-1.825 2.978,-1.825l9.509,0c0.512,0 0.977,0.192 1.393,0.576c0.416,0.384 0.624,0.864 0.624,1.441c0,0.256 -0.128,0.64 -0.384,1.152l-20.075,29.777l21.516,31.12c0.192,0.385 0.288,0.769 0.288,1.153c0,0.576 -0.192,1.057 -0.576,1.441c-0.385,0.384 -0.865,0.576 -1.441,0.576l-10.278,0c-1.152,0 -2.145,-0.576 -2.977,-1.729l-15.177,-21.612l-14.984,21.612c-0.832,1.153 -1.825,1.729 -2.977,1.729l-9.99,0Z" style="fill:#fff;fill-rule:nonzero;"/><path d="M131.976,280.448c-8.773,0 -15.593,-2.21 -20.459,-6.628c-4.867,-4.418 -7.428,-10.982 -7.684,-19.691c-0.064,-1.857 -0.096,-4.578 -0.096,-8.164c0,-3.65 0.032,-6.404 0.096,-8.261c0.256,-8.516 2.881,-15.048 7.876,-19.594c4.995,-4.547 11.75,-6.82 20.267,-6.82c8.453,0 15.192,2.273 20.219,6.82c5.027,4.546 7.668,11.078 7.924,19.594c0.128,3.714 0.192,6.468 0.192,8.261c0,1.729 -0.064,4.45 -0.192,8.164c-0.256,8.709 -2.833,15.273 -7.732,19.691c-4.899,4.418 -11.702,6.628 -20.411,6.628Zm0,-11.142c4.29,0 7.684,-1.281 10.182,-3.842c2.497,-2.562 3.842,-6.5 4.034,-11.815c0.128,-3.842 0.192,-6.435 0.192,-7.78c0,-1.473 -0.064,-4.066 -0.192,-7.78c-0.192,-5.251 -1.569,-9.173 -4.131,-11.767c-2.561,-2.593 -5.923,-3.89 -10.085,-3.89c-4.226,0 -7.62,1.297 -10.182,3.89c-2.561,2.594 -3.906,6.516 -4.034,11.767c-0.064,1.857 -0.096,4.45 -0.096,7.78c0,3.266 0.032,5.859 0.096,7.78c0.128,5.251 1.457,9.173 3.986,11.767c2.53,2.593 5.94,3.89 10.23,3.89Z" style="fill:#fff;fill-rule:nonzero;"/><path d="M216.406,279.487c-0.64,0 -1.185,-0.224 -1.633,-0.672c-0.448,-0.448 -0.672,-0.993 -0.672,-1.633l0,-52.733l-20.748,0l0,11.911c0,10.565 -0.72,18.906 -2.161,25.021c-1.441,6.116 -3.89,10.598 -7.348,13.448c-3.458,2.849 -8.292,4.37 -14.504,4.562c-0.64,0.064 -1.2,-0.144 -1.681,-0.624c-0.48,-0.48 -0.72,-1.041 -0.72,-1.681l0,-7.396c0,-0.641 0.208,-1.153 0.624,-1.537c0.417,-0.384 0.945,-0.64 1.585,-0.768c3.778,-0.577 6.58,-3.538 8.405,-8.885c1.825,-5.347 2.737,-13.303 2.737,-23.869l0,-20.075c0,-0.705 0.224,-1.265 0.673,-1.681c0.448,-0.416 0.992,-0.624 1.633,-0.624l42.647,0c0.704,0 1.28,0.224 1.729,0.672c0.448,0.448 0.672,1.024 0.672,1.729l0,62.53c0,0.64 -0.224,1.185 -0.672,1.633c-0.449,0.448 -1.025,0.672 -1.729,0.672l-8.837,0Z" style="fill:#fff;fill-rule:nonzero;"/><path d="M287.004,279.487c-0.64,0 -1.184,-0.224 -1.632,-0.672c-0.449,-0.448 -0.673,-0.993 -0.673,-1.633l0,-52.733l-20.747,0l0,11.911c0,10.565 -0.721,18.906 -2.161,25.021c-1.441,6.116 -3.89,10.598 -7.348,13.448c-3.458,2.849 -8.293,4.37 -14.504,4.562c-0.641,0.064 -1.201,-0.144 -1.681,-0.624c-0.48,-0.48 -0.721,-1.041 -0.721,-1.681l0,-7.396c0,-0.641 0.209,-1.153 0.625,-1.537c0.416,-0.384 0.944,-0.64 1.585,-0.768c3.778,-0.577 6.579,-3.538 8.404,-8.885c1.825,-5.347 2.738,-13.303 2.738,-23.869l0,-20.075c0,-0.705 0.224,-1.265 0.672,-1.681c0.448,-0.416 0.993,-0.624 1.633,-0.624l42.647,0c0.705,0 1.281,0.224 1.729,0.672c0.448,0.448 0.673,1.024 0.673,1.729l0,62.53c0,0.64 -0.225,1.185 -0.673,1.633c-0.448,0.448 -1.024,0.672 -1.729,0.672l-8.837,0Z" style="fill:#fff;fill-rule:nonzero;"/><path d="M52.445,375.539c-0.577,0 -1.057,-0.208 -1.441,-0.624c-0.384,-0.416 -0.576,-0.912 -0.576,-1.489c0,-0.384 0.16,-0.8 0.48,-1.248l14.12,-19.403c-1.089,0.256 -2.434,0.384 -4.035,0.384c-4.226,-0.128 -8.084,-1.2 -11.574,-3.217c-3.49,-2.018 -6.259,-4.707 -8.308,-8.069c-2.05,-3.362 -3.074,-7.092 -3.074,-11.19c0,-4.034 0.992,-7.828 2.977,-11.382c1.986,-3.554 4.931,-6.436 8.837,-8.645c3.906,-2.209 8.613,-3.314 14.12,-3.314c5.571,0 10.342,1.041 14.312,3.122c3.97,2.081 6.964,4.867 8.981,8.357c2.017,3.489 3.025,7.316 3.025,11.478c0,2.625 -0.416,5.091 -1.248,7.396c-0.833,2.305 -1.777,4.306 -2.834,6.003c-1.057,1.697 -2.545,3.89 -4.466,6.58l-16.81,23.34c-0.512,0.641 -0.992,1.121 -1.44,1.441c-0.449,0.32 -1.057,0.48 -1.825,0.48l-9.221,0Zm11.622,-32.753c3.522,0 6.468,-1.105 8.837,-3.314c2.369,-2.209 3.554,-5.139 3.554,-8.789c0,-3.714 -1.185,-6.676 -3.554,-8.885c-2.369,-2.209 -5.315,-3.314 -8.837,-3.314c-3.458,0 -6.371,1.105 -8.741,3.314c-2.369,2.209 -3.554,5.171 -3.554,8.885c0,3.65 1.169,6.58 3.506,8.789c2.337,2.209 5.267,3.314 8.789,3.314Z" style="fill:#fff;fill-rule:nonzero;"/><path d="M127.654,376.5c-8.773,0 -15.593,-2.209 -20.46,-6.628c-4.866,-4.418 -7.428,-10.982 -7.684,-19.69c-0.064,-1.857 -0.096,-4.579 -0.096,-8.165c0,-3.65 0.032,-6.403 0.096,-8.26c0.256,-8.517 2.882,-15.048 7.877,-19.595c4.994,-4.546 11.75,-6.82 20.267,-6.82c8.452,0 15.192,2.274 20.219,6.82c5.026,4.547 7.668,11.078 7.924,19.595c0.128,3.714 0.192,6.467 0.192,8.26c0,1.729 -0.064,4.451 -0.192,8.165c-0.256,8.708 -2.834,15.272 -7.732,19.69c-4.899,4.419 -11.703,6.628 -20.411,6.628Zm0,-11.142c4.29,0 7.684,-1.281 10.181,-3.842c2.498,-2.562 3.842,-6.5 4.034,-11.815c0.128,-3.842 0.192,-6.435 0.192,-7.78c0,-1.473 -0.064,-4.066 -0.192,-7.78c-0.192,-5.251 -1.568,-9.173 -4.13,-11.766c-2.561,-2.594 -5.923,-3.891 -10.085,-3.891c-4.227,0 -7.621,1.297 -10.182,3.891c-2.561,2.593 -3.906,6.515 -4.034,11.766c-0.064,1.857 -0.096,4.45 -0.096,7.78c0,3.266 0.032,5.859 0.096,7.78c0.128,5.251 1.457,9.173 3.986,11.767c2.529,2.593 5.939,3.89 10.23,3.89Z" style="fill:#fff;fill-rule:nonzero;"/></g><path d="M367.722,406.5l38.778,0l0,-400l-400,0l0,400l291.743,0" style="fill:none;stroke:#fff;stroke-width:13px;"/><path d="M367.722,406.5l0,-81.333c0,0 -69.479,0.166 -69.479,81.333" style="fill:none;stroke:#fff;stroke-width:13px;"/></svg>