<?xml version="1.0" encoding="UTF-8" standalone="no"?><!DOCTYPE svg PUBLIC "-//W3C//DTD SVG 1.1//EN" "http://www.w3.org/Graphics/SVG/1.1/DTD/svg11.dtd"><svg width="100%" height="100%" viewBox="0 0 513 183" version="1.1" xmlns="http://www.w3.org/2000/svg" xmlns:xlink="http://www.w3.org/1999/xlink" xml:space="preserve" xmlns:serif="http://www.serif.com/" style="fill-rule:evenodd;clip-rule:evenodd;stroke-linecap:round;stroke-linejoin:round;stroke-miterlimit:1.5;"><g><rect x="6.5" y="6.5" width="500" height="170" style="fill:none;stroke:#fff;stroke-width:13px;"/><g><path d="M65.356,125.118c-0.512,0 -0.977,-0.192 -1.393,-0.576c-0.416,-0.384 -0.624,-0.864 -0.624,-1.441c0,-0.256 0.128,-0.64 0.384,-1.152l21.42,-31.121l-20.075,-29.777c-0.256,-0.384 -0.384,-0.768 -0.384,-1.152c0,-0.577 0.208,-1.057 0.624,-1.441c0.416,-0.384 0.88,-0.576 1.393,-0.576l10.085,0c1.153,0 2.145,0.608 2.978,1.825l14.023,20.555l14.12,-20.555c0.704,-1.217 1.697,-1.825 2.978,-1.825l9.509,0c0.512,0 0.976,0.192 1.393,0.576c0.416,0.384 0.624,0.864 0.624,1.441c0,0.256 -0.128,0.64 -0.384,1.152l-20.075,29.777l21.516,31.121c0.192,0.384 0.288,0.768 0.288,1.152c0,0.577 -0.192,1.057 -0.577,1.441c-0.384,0.384 -0.864,0.576 -1.44,0.576l-10.278,0c-1.153,0 -2.145,-0.576 -2.978,-1.729l-15.176,-21.611l-14.984,21.611c-0.832,1.153 -1.825,1.729 -2.978,1.729l-9.989,0Z" style="fill:#fff;fill-rule:nonzero;"/><path d="M158.815,126.079c-8.773,0 -15.593,-2.209 -20.459,-6.628c-4.867,-4.418 -7.428,-10.982 -7.685,-19.691c-0.064,-1.857 -0.096,-4.578 -0.096,-8.164c0,-3.65 0.032,-6.403 0.096,-8.26c0.257,-8.517 2.882,-15.049 7.877,-19.595c4.994,-4.547 11.75,-6.82 20.267,-6.82c8.452,0 15.192,2.273 20.219,6.82c5.027,4.546 7.668,11.078 7.924,19.595c0.128,3.714 0.192,6.467 0.192,8.26c0,1.729 -0.064,4.45 -0.192,8.164c-0.256,8.709 -2.833,15.273 -7.732,19.691c-4.899,4.419 -11.702,6.628 -20.411,6.628Zm0,-11.142c4.29,0 7.684,-1.281 10.181,-3.842c2.498,-2.562 3.842,-6.5 4.035,-11.815c0.128,-3.842 0.192,-6.435 0.192,-7.78c0,-1.473 -0.064,-4.066 -0.192,-7.78c-0.193,-5.251 -1.569,-9.173 -4.131,-11.767c-2.561,-2.593 -5.923,-3.89 -10.085,-3.89c-4.226,0 -7.62,1.297 -10.182,3.89c-2.561,2.594 -3.906,6.516 -4.034,11.767c-0.064,1.857 -0.096,4.45 -0.096,7.78c0,3.266 0.032,5.859 0.096,7.78c0.128,5.251 1.457,9.173 3.986,11.767c2.53,2.593 5.939,3.89 10.23,3.89Z" style="fill:#fff;fill-rule:nonzero;"/><path d="M243.245,125.118c-0.641,0 -1.185,-0.224 -1.633,-0.672c-0.448,-0.448 -0.672,-0.993 -0.672,-1.633l0,-52.733l-20.748,0l0,11.911c0,10.566 -0.72,18.906 -2.161,25.021c-1.441,6.116 -3.89,10.598 -7.348,13.448c-3.458,2.849 -8.292,4.37 -14.504,4.562c-0.64,0.064 -1.2,-0.144 -1.681,-0.624c-0.48,-0.48 -0.72,-1.041 -0.72,-1.681l0,-7.396c0,-0.64 0.208,-1.153 0.624,-1.537c0.416,-0.384 0.945,-0.64 1.585,-0.768c3.778,-0.577 6.58,-3.538 8.405,-8.885c1.825,-5.347 2.737,-13.303 2.737,-23.869l0,-20.075c0,-0.704 0.224,-1.265 0.672,-1.681c0.449,-0.416 0.993,-0.624 1.633,-0.624l42.648,0c0.704,0 1.28,0.224 1.729,0.672c0.448,0.448 0.672,1.025 0.672,1.729l0,62.53c0,0.64 -0.224,1.185 -0.672,1.633c-0.449,0.448 -1.025,0.672 -1.729,0.672l-8.837,0Z" style="fill:#fff;fill-rule:nonzero;"/><path d="M313.843,125.118c-0.64,0 -1.184,-0.224 -1.633,-0.672c-0.448,-0.448 -0.672,-0.993 -0.672,-1.633l0,-52.733l-20.747,0l0,11.911c0,10.566 -0.721,18.906 -2.162,25.021c-1.44,6.116 -3.89,10.598 -7.348,13.448c-3.457,2.849 -8.292,4.37 -14.503,4.562c-0.641,0.064 -1.201,-0.144 -1.681,-0.624c-0.481,-0.48 -0.721,-1.041 -0.721,-1.681l0,-7.396c0,-0.64 0.208,-1.153 0.625,-1.537c0.416,-0.384 0.944,-0.64 1.584,-0.768c3.779,-0.577 6.58,-3.538 8.405,-8.885c1.825,-5.347 2.738,-13.303 2.738,-23.869l0,-20.075c0,-0.704 0.224,-1.265 0.672,-1.681c0.448,-0.416 0.992,-0.624 1.633,-0.624l42.647,0c0.704,0 1.281,0.224 1.729,0.672c0.448,0.448 0.672,1.025 0.672,1.729l0,62.53c0,0.64 -0.224,1.185 -0.672,1.633c-0.448,0.448 -1.025,0.672 -1.729,0.672l-8.837,0Z" style="fill:#fff;fill-rule:nonzero;"/><path d="M350.055,125.118c-0.576,0 -1.057,-0.208 -1.441,-0.624c-0.384,-0.416 -0.576,-0.913 -0.576,-1.489c0,-0.384 0.16,-0.8 0.48,-1.249l14.12,-19.402c-1.089,0.256 -2.434,0.384 -4.034,0.384c-4.227,-0.128 -8.085,-1.201 -11.575,-3.218c-3.49,-2.017 -6.259,-4.706 -8.308,-8.068c-2.049,-3.362 -3.074,-7.092 -3.074,-11.19c0,-4.034 0.993,-7.828 2.978,-11.382c1.985,-3.554 4.93,-6.436 8.837,-8.645c3.906,-2.209 8.612,-3.314 14.119,-3.314c5.571,0 10.342,1.041 14.312,3.122c3.97,2.081 6.964,4.867 8.981,8.356c2.017,3.49 3.026,7.316 3.026,11.479c0,2.625 -0.417,5.09 -1.249,7.396c-0.833,2.305 -1.777,4.306 -2.834,6.003c-1.056,1.697 -2.545,3.89 -4.466,6.58l-16.809,23.34c-0.513,0.641 -0.993,1.121 -1.441,1.441c-0.448,0.32 -1.057,0.48 -1.825,0.48l-9.221,0Zm11.622,-32.754c3.522,0 6.468,-1.104 8.837,-3.313c2.369,-2.21 3.554,-5.139 3.554,-8.789c0,-3.714 -1.185,-6.676 -3.554,-8.885c-2.369,-2.209 -5.315,-3.314 -8.837,-3.314c-3.458,0 -6.371,1.105 -8.74,3.314c-2.37,2.209 -3.554,5.171 -3.554,8.885c0,3.65 1.168,6.579 3.505,8.789c2.338,2.209 5.267,3.313 8.789,3.313Z" style="fill:#fff;fill-rule:nonzero;"/><path d="M423.439,126.079c-8.581,0 -14.968,-2.369 -19.163,-7.108c-4.194,-4.739 -6.483,-10.95 -6.867,-18.634c-0.064,-1.729 -0.096,-4.675 -0.096,-8.837c0,-4.226 0.032,-7.236 0.096,-9.029c0.32,-7.556 2.625,-13.703 6.915,-18.442c4.291,-4.739 10.662,-7.108 19.115,-7.108c8.453,0 14.824,2.369 19.114,7.108c4.291,4.739 6.596,10.886 6.916,18.442c0.128,3.586 0.192,6.596 0.192,9.029c0,2.433 -0.064,5.379 -0.192,8.837c-0.384,7.684 -2.673,13.895 -6.868,18.634c-4.194,4.739 -10.581,7.108 -19.162,7.108Zm0,-11.238c3.97,0 6.948,-1.297 8.933,-3.89c1.985,-2.594 3.041,-6.292 3.169,-11.094c0.065,-1.857 0.097,-4.707 0.097,-8.549c0,-3.842 -0.032,-6.628 -0.097,-8.357c-0.128,-4.674 -1.184,-8.324 -3.169,-10.95c-1.985,-2.625 -4.963,-3.97 -8.933,-4.034c-3.97,0.064 -6.948,1.409 -8.933,4.034c-1.985,2.626 -3.042,6.276 -3.17,10.95c-0.064,1.729 -0.096,4.515 -0.096,8.357c0,3.842 0.032,6.692 0.096,8.549c0.128,4.802 1.185,8.5 3.17,11.094c1.985,2.593 4.963,3.89 8.933,3.89Z" style="fill:#fff;fill-rule:nonzero;"/></g></g></svg>